<?xml version="1.0" standalone="no"?><!DOCTYPE svg PUBLIC "-//W3C//DTD SVG 1.1//EN" "http://www.w3.org/Graphics/SVG/1.1/DTD/svg11.dtd"><svg t="1582862663471" class="icon" viewBox="0 0 1024 1024" version="1.1" xmlns="http://www.w3.org/2000/svg" p-id="1196" width="120" height="120" xmlns:xlink="http://www.w3.org/1999/xlink"><defs><style type="text/css"></style></defs><path d="M880.396371 666.274666 148.509359 666.274666c0-113.917516 54.625108-215.311811 139.619898-280.761452L153.238057 190.144618l0.995677-0.947582c-2.220574-1.11745-4.317329-2.558265-6.129604-4.471848-8.498558-8.964162-8.098445-23.098068 0.898463-31.576159 8.992815-8.468882 23.171746-8.077979 31.676443 0.887206 1.798972 1.915629 3.1262 4.080945 4.134157 6.352685l0.99363-0.933255 138.883117 201.146183c55.334259-32.839943 120.276341-51.756781 189.758832-51.756781 68.284199 0 132.157949 18.321274 186.857758 50.118468l119.830179-194.737216 1.01512 0.912789c1.007957-2.205225 2.348488-4.316306 4.174066-6.176676 8.585539-8.706289 22.923082-9.099239 32.007995-0.865717 9.085936 8.240685 9.491165 21.980617 0.892323 30.701233-1.825578 1.873674-4.024663 3.160993-6.27696 4.25593l1.094938 1.010003L737.692229 383.1504C824.458361 448.50692 880.396371 550.983873 880.396371 666.274666L880.396371 666.274666zM514.449795 362.462219c-141.467989 0-292.756647 112.017236-292.756647 250.195296l585.514317 0C807.206442 474.479455 655.923924 362.462219 514.449795 362.462219L514.449795 362.462219zM645.437082 537.668613c-17.036002 0-30.844495-13.809517-30.844495-30.843472 0-17.036002 13.808494-30.844495 30.844495-30.844495 17.036002 0 30.844495 13.809517 30.844495 30.844495C676.281577 523.859096 662.47206 537.668613 645.437082 537.668613L645.437082 537.668613zM378.12392 537.668613c-17.042141 0-30.843472-13.809517-30.843472-30.843472 0-17.036002 13.800307-30.844495 30.843472-30.844495 17.036002 0 30.844495 13.809517 30.844495 30.844495C408.969439 523.859096 395.159922 537.668613 378.12392 537.668613L378.12392 537.668613zM172.494633 753.575987c17.036002 0 30.843472 13.809517 30.843472 30.844495 0 4.234441 10.093892 32.960693 43.015699 32.960693l527.3455 0c38.264489 0 46.52564-32.149211 46.52564-22.678512 0-17.036002 13.802354-30.843472 30.844495-30.843472 17.036002 0 30.843472 13.807471 30.843472 30.843472 1.326205 0.832971 4.729721 82.249259-78.344323 82.249259L216.476333 876.951923c-80.029708 0-74.000388-91.727121-74.826196-92.532463C141.649114 767.385505 155.458631 753.575987 172.494633 753.575987L172.494633 753.575987zM172.494633 753.575987" p-id="1197" fill="#36ab60"></path></svg>